<mxfile host="65bd71144e">
    <diagram id="iL5g7QFURnzVSpQdVxL9" name="Page-1">
        <mxGraphModel dx="308" dy="1546" grid="1" gridSize="10" guides="1" tooltips="1" connect="1" arrows="1" fold="1" page="1" pageScale="1" pageWidth="827" pageHeight="1169" math="0" shadow="0">
            <root>
                <mxCell id="0"/>
                <mxCell id="1" parent="0"/>
                <mxCell id="OXCrKDdEGUTZPmi1r7tx-1" value="" style="rounded=0;whiteSpace=wrap;html=1;" parent="1" vertex="1">
                    <mxGeometry x="240" y="-665" width="450" height="325" as="geometry"/>
                </mxCell>
                <mxCell id="OXCrKDdEGUTZPmi1r7tx-2" value="" style="rounded=0;whiteSpace=wrap;html=1;shadow=0;" parent="1" vertex="1">
                    <mxGeometry x="259" y="-640" width="421" height="50" as="geometry"/>
                </mxCell>
                <mxCell id="OXCrKDdEGUTZPmi1r7tx-3" value="" style="rounded=0;whiteSpace=wrap;html=1;" parent="1" vertex="1">
                    <mxGeometry x="270" y="-630" width="120" height="30" as="geometry"/>
                </mxCell>
                <mxCell id="OXCrKDdEGUTZPmi1r7tx-4" value="Search bar" style="rounded=0;whiteSpace=wrap;html=1;" parent="1" vertex="1">
                    <mxGeometry x="500" y="-630" width="90" height="30" as="geometry"/>
                </mxCell>
                <mxCell id="OXCrKDdEGUTZPmi1r7tx-5" value="user info" style="rounded=0;whiteSpace=wrap;html=1;" parent="1" vertex="1">
                    <mxGeometry x="270" y="-570" width="120" height="40" as="geometry"/>
                </mxCell>
                <mxCell id="OXCrKDdEGUTZPmi1r7tx-6" value="description" style="rounded=0;whiteSpace=wrap;html=1;" parent="1" vertex="1">
                    <mxGeometry x="270" y="-510" width="120" height="140" as="geometry"/>
                </mxCell>
                <mxCell id="OXCrKDdEGUTZPmi1r7tx-7" value="" style="rounded=0;whiteSpace=wrap;html=1;" parent="1" vertex="1">
                    <mxGeometry x="414" y="-570" width="120" height="200" as="geometry"/>
                </mxCell>
                <mxCell id="OXCrKDdEGUTZPmi1r7tx-8" value="&lt;font style=&quot;font-size: 12px&quot;&gt;add new friens&lt;/font&gt;" style="rounded=0;whiteSpace=wrap;html=1;verticalAlign=top;" parent="1" vertex="1">
                    <mxGeometry x="550" y="-570" width="120" height="200" as="geometry"/>
                </mxCell>
                <mxCell id="OXCrKDdEGUTZPmi1r7tx-9" value="post bar" style="rounded=0;whiteSpace=wrap;html=1;" parent="1" vertex="1">
                    <mxGeometry x="420" y="-560" width="110" height="20" as="geometry"/>
                </mxCell>
                <mxCell id="OXCrKDdEGUTZPmi1r7tx-10" value="friend's status" style="rounded=0;whiteSpace=wrap;html=1;" parent="1" vertex="1">
                    <mxGeometry x="420" y="-530" width="110" height="30" as="geometry"/>
                </mxCell>
                <mxCell id="OXCrKDdEGUTZPmi1r7tx-11" value="friend's status" style="rounded=0;whiteSpace=wrap;html=1;" parent="1" vertex="1">
                    <mxGeometry x="420" y="-490" width="110" height="30" as="geometry"/>
                </mxCell>
                <mxCell id="OXCrKDdEGUTZPmi1r7tx-12" value="friend's status" style="rounded=0;whiteSpace=wrap;html=1;" parent="1" vertex="1">
                    <mxGeometry x="420" y="-449" width="110" height="30" as="geometry"/>
                </mxCell>
                <mxCell id="OXCrKDdEGUTZPmi1r7tx-13" value="&lt;p&gt;ppl you may know&lt;/p&gt;" style="rounded=0;whiteSpace=wrap;html=1;" parent="1" vertex="1">
                    <mxGeometry x="560" y="-550" width="100" height="20" as="geometry"/>
                </mxCell>
                <mxCell id="OXCrKDdEGUTZPmi1r7tx-14" value="ppl you may know" style="rounded=0;whiteSpace=wrap;html=1;" parent="1" vertex="1">
                    <mxGeometry x="560" y="-525" width="100" height="20" as="geometry"/>
                </mxCell>
                <mxCell id="OXCrKDdEGUTZPmi1r7tx-15" value="ppl you may know" style="rounded=0;whiteSpace=wrap;html=1;" parent="1" vertex="1">
                    <mxGeometry x="560" y="-491" width="100" height="20" as="geometry"/>
                </mxCell>
                <mxCell id="OXCrKDdEGUTZPmi1r7tx-16" value="Tweet" style="rounded=0;whiteSpace=wrap;html=1;" parent="1" vertex="1">
                    <mxGeometry x="610" y="-630" width="60" height="30" as="geometry"/>
                </mxCell>
            </root>
        </mxGraphModel>
    </diagram>
</mxfile>